<svg width="24" height="25" viewBox="0 0 24 25" fill="none" xmlns="http://www.w3.org/2000/svg">
    <path fill-rule="evenodd" clip-rule="evenodd"
          d="M4 2.59277H20C21.1046 2.59277 22 3.48092 22 4.57651V20.4464C22 21.542 21.1046 22.4302 20 22.4302H4C2.89543 22.4302 2 21.542 2 20.4464V4.57651C2 3.48092 2.89543 2.59277 4 2.59277ZM4 4.57651V16.0681L8 12.1006L11.5 15.5722L18 9.12502L20 11.1088V4.57651H4ZM4 20.4464V18.8735L8 14.9061L13.5858 20.4464H4ZM20 20.4464H16.4142L12.9142 16.9749L18 11.9304L20 13.9142V20.4464ZM14 8.54399C14 6.90061 12.6569 5.56838 11 5.56838C9.34315 5.56838 8 6.90061 8 8.54399C8 10.1874 9.34315 11.5196 11 11.5196C12.6569 11.5196 14 10.1874 14 8.54399ZM10 8.54399C10 7.9962 10.4477 7.55212 11 7.55212C11.5523 7.55212 12 7.9962 12 8.54399C12 9.09179 11.5523 9.53586 11 9.53586C10.4477 9.53586 10 9.09179 10 8.54399Z"
          fill="#393939"/>
</svg>
