<svg width="132" height="36" viewBox="0 0 132 36" fill="none" xmlns="http://www.w3.org/2000/svg">
<g clip-path="url(#clip0)">
<path d="M9.35449 27.0806C7.04004 27.0806 5.04785 25.916 3.37793 23.5869C2.68945 22.6201 2.09619 21.4995 1.59814 20.2251C1.56885 20.0933 1.53223 19.9688 1.48828 19.8516C1.09277 18.709 0.829102 17.5371 0.697266 16.3359L0.65332 15.6548C0.609375 15.2007 0.587402 14.7539 0.587402 14.3145L0.609375 13.875C0.667969 11.8242 0.975586 10.0371 1.53223 8.51367C1.88379 7.35645 2.40381 6.28711 3.09229 5.30566C3.63428 4.48535 4.35205 3.70898 5.24561 2.97656C5.94873 2.40527 6.73975 1.93652 7.61865 1.57031C8.23389 1.32129 9.01758 1.16016 9.96973 1.08691C11.3027 1.08691 12.3574 1.39453 13.1338 2.00977C13.5586 2.31738 13.9688 2.75684 14.3643 3.32812C14.7158 3.89941 14.9722 4.37549 15.1333 4.75635C15.3237 5.1958 15.4189 5.61328 15.4189 6.00879C15.4189 6.19922 15.397 6.36768 15.353 6.51416V6.53613C15.1772 7.00488 14.8037 7.23926 14.2324 7.23926C13.793 7.23926 13.3535 7.12207 12.9141 6.8877C12.4893 6.65332 12.167 6.31641 11.9473 5.87695C11.376 4.9248 10.834 4.44873 10.3213 4.44873C10.2627 4.44873 10.1382 4.46338 9.94775 4.49268C9.77197 4.50732 9.42773 4.68311 8.91504 5.02002C8.63672 5.18115 8.37305 5.35693 8.12402 5.54736C7.40625 6.14795 6.73975 7.06348 6.12451 8.29395C5.94873 8.7334 5.7876 9.17285 5.64111 9.6123C5.20166 11.0479 4.98193 12.6152 4.98193 14.3145C4.98193 15.2373 5.13574 16.2993 5.44336 17.5005C5.66309 18.4087 6.04395 19.3315 6.58594 20.269C7.68457 22.1147 8.76123 23.0376 9.81592 23.0376C10.3726 23.0376 10.8486 22.8838 11.2441 22.5762C11.7129 22.2246 12.0278 21.9683 12.189 21.8071L12.3208 21.6973C12.6284 21.4189 12.98 21.0015 13.3755 20.4448C13.5806 20.1812 13.6904 20.0347 13.7051 20.0054C13.7344 19.9614 13.771 19.9248 13.8149 19.8955C14.1079 19.6172 14.4009 19.478 14.6938 19.478C14.7671 19.478 14.9062 19.5073 15.1113 19.5659C15.3311 19.6099 15.5068 19.8735 15.6387 20.3569L15.6606 20.5327L15.6387 20.5986C15.6387 20.9355 15.6021 21.2725 15.5288 21.6094L15.4409 21.939C15.2358 22.8618 14.877 23.6968 14.3643 24.4438C13.7637 25.2935 13.002 25.9526 12.0791 26.4214C11.2588 26.8608 10.3506 27.0806 9.35449 27.0806Z" fill="#1E1E1E"/>
<path d="M22.5161 24.2021C21.3442 24.2021 20.2529 23.8359 19.2422 23.1035C18.4805 22.5176 17.8872 21.7705 17.4624 20.8623C16.5542 19.1484 16.1001 17.2661 16.1001 15.2153C16.1001 14.0142 16.2686 12.8203 16.6055 11.6338C16.6348 11.5752 16.6567 11.5093 16.6714 11.436C16.7886 11.0112 16.9351 10.5938 17.1108 10.1836C18.2681 7.98633 19.8647 6.8877 21.9009 6.8877C22.7358 6.8877 23.5562 7.08545 24.3618 7.48096C25.1675 7.87646 25.8706 8.45508 26.4712 9.2168C27.5552 10.5938 28.2437 12.1831 28.5366 13.9849C28.6099 14.4536 28.6465 14.9956 28.6465 15.6108C28.6465 15.9624 28.6245 16.3213 28.5806 16.6875C28.4927 17.6396 28.3096 18.5112 28.0312 19.3022C27.665 20.2251 27.2988 20.9722 26.9326 21.5435C26.4785 22.2466 25.9146 22.8472 25.2407 23.3452C24.3618 23.9165 23.4536 24.2021 22.5161 24.2021ZM22.4282 20.5327C22.5015 20.5327 22.6626 20.4814 22.9116 20.3789C23.1606 20.2764 23.5122 19.8149 23.9663 18.9946C24.1128 18.7603 24.2373 18.5112 24.3398 18.2476V18.2036C24.6035 17.5151 24.772 16.9072 24.8452 16.3799L24.8672 16.314C24.9111 16.0649 24.9331 15.8232 24.9331 15.5889C24.9331 15.1348 24.9038 14.7393 24.8452 14.4023C24.7573 13.8018 24.5596 13.2012 24.252 12.6006C23.959 11.9854 23.6514 11.5093 23.3291 11.1724C22.6846 10.6157 22.1792 10.3374 21.813 10.3374C21.4175 10.3374 21.0586 10.6963 20.7363 11.4141C20.4287 12.1318 20.2163 12.9009 20.0991 13.7212C20.0112 14.2339 19.9673 14.7539 19.9673 15.2812C19.9673 16.7168 20.3262 18.0938 21.0439 19.4121C21.5859 20.1592 22.0474 20.5327 22.4282 20.5327Z" fill="#1E1E1E"/>
<path d="M31.5249 26.5093C31.3345 26.5093 31.0928 26.4507 30.7998 26.3335C30.3311 26.1724 29.9136 25.0005 29.5474 22.8179C29.4009 21.8804 29.2837 20.855 29.1958 19.7417C29.1372 18.9653 29.1079 18.1816 29.1079 17.3906C29.1079 16.3652 29.1445 15.3545 29.2178 14.3584C29.3203 13.0254 29.4448 11.9194 29.5913 11.0405C29.7378 10.0737 29.9722 9.14355 30.2944 8.25C30.9829 6.3457 32.001 5.12256 33.3486 4.58057C33.8174 4.41943 34.2495 4.33887 34.645 4.33887C35.6851 4.33887 36.6372 4.82227 37.5015 5.78906C38.3218 6.71191 39.0029 8.19141 39.5449 10.2275L39.5669 10.2935C39.8013 9.64893 40.1235 8.98242 40.5337 8.29395C41.2954 7.07812 42.2402 6.16992 43.3682 5.56934C43.9834 5.27637 44.5767 5.12988 45.1479 5.12988C45.5728 5.12988 45.9902 5.21777 46.4004 5.39355C47.0156 5.70117 47.4917 6.12598 47.8286 6.66797C48.1655 7.20996 48.4072 7.81055 48.5537 8.46973C48.6562 8.87988 48.7441 9.56104 48.8174 10.5132L48.8394 11.6558V12.8862C48.8394 13.2964 48.8174 14.1826 48.7734 15.5449C48.7588 15.6475 48.7515 15.7573 48.7515 15.8745L48.6416 18.3354L48.6196 19.4341C48.6196 20.8696 48.5391 21.873 48.3779 22.4443C48.0703 23.3379 47.5942 23.7847 46.9497 23.7847C46.3345 23.7847 45.8804 23.3452 45.5874 22.4663C45.4702 22.0269 45.4043 21.5801 45.3896 21.126L45.3677 19.4561L45.3896 18.2695C45.3896 17.7275 45.4043 17.2515 45.4336 16.8413L45.4775 15.4351C45.5215 14.9956 45.5435 14.146 45.5435 12.8862C45.5288 10.3081 45.2798 9.01904 44.7964 9.01904C44.5034 9.01904 44.1152 9.58301 43.6318 10.7109C43.3682 11.2236 43.1411 11.7437 42.9507 12.271L42.8408 12.5786C42.6064 13.3696 42.394 14.1533 42.2036 14.9297C42.1304 15.208 41.9985 15.8672 41.8081 16.9072C41.7056 17.4199 41.6104 17.9399 41.5225 18.4673C41.4785 18.7896 41.4272 19.1045 41.3687 19.4121C41.3394 19.5293 41.2954 19.793 41.2368 20.2031C41.2075 20.3936 41.1562 20.584 41.083 20.7744C40.9951 21.1113 40.79 21.353 40.4678 21.4995L39.1934 21.6973C38.6807 21.6533 38.3218 21.1919 38.1167 20.313C37.7798 17.647 37.1938 14.9663 36.3589 12.271L36.271 11.9414C36.0366 11.1064 35.8242 10.4253 35.6338 9.89795C35.2969 9.22412 35.0039 8.88721 34.7549 8.88721C34.3887 8.88721 34.0811 9.63428 33.832 11.1284C33.5244 12.6519 33.3413 14.3657 33.2827 16.27L33.2607 16.7095C33.2607 17.1196 33.2681 17.5225 33.2827 17.918C33.3413 19.8369 33.3999 20.9575 33.4585 21.2798C33.5757 22.5835 33.6855 23.6162 33.7881 24.3779L33.8979 24.9932C33.8687 25.1543 33.6929 25.3813 33.3706 25.6743C33.063 25.9526 32.6821 26.1797 32.228 26.3555C31.979 26.458 31.7446 26.5093 31.5249 26.5093Z" fill="#1E1E1E"/>
<path d="M51.6958 26.5093C51.5054 26.5093 51.2637 26.4507 50.9707 26.3335C50.502 26.1724 50.0845 25.0005 49.7183 22.8179C49.5718 21.8804 49.4546 20.855 49.3667 19.7417C49.3081 18.9653 49.2788 18.1816 49.2788 17.3906C49.2788 16.3652 49.3154 15.3545 49.3887 14.3584C49.4912 13.0254 49.6157 11.9194 49.7622 11.0405C49.9087 10.0737 50.1431 9.14355 50.4653 8.25C51.1538 6.3457 52.1719 5.12256 53.5195 4.58057C53.9883 4.41943 54.4204 4.33887 54.8159 4.33887C55.856 4.33887 56.8081 4.82227 57.6724 5.78906C58.4927 6.71191 59.1738 8.19141 59.7158 10.2275L59.7378 10.2935C59.9722 9.64893 60.2944 8.98242 60.7046 8.29395C61.4663 7.07812 62.4111 6.16992 63.5391 5.56934C64.1543 5.27637 64.7476 5.12988 65.3188 5.12988C65.7437 5.12988 66.1611 5.21777 66.5713 5.39355C67.1865 5.70117 67.6626 6.12598 67.9995 6.66797C68.3364 7.20996 68.5781 7.81055 68.7246 8.46973C68.8271 8.87988 68.915 9.56104 68.9883 10.5132L69.0103 11.6558V12.8862C69.0103 13.2964 68.9883 14.1826 68.9443 15.5449C68.9297 15.6475 68.9224 15.7573 68.9224 15.8745L68.8125 18.3354L68.7905 19.4341C68.7905 20.8696 68.71 21.873 68.5488 22.4443C68.2412 23.3379 67.7651 23.7847 67.1206 23.7847C66.5054 23.7847 66.0513 23.3452 65.7583 22.4663C65.6411 22.0269 65.5752 21.5801 65.5605 21.126L65.5386 19.4561L65.5605 18.2695C65.5605 17.7275 65.5752 17.2515 65.6045 16.8413L65.6484 15.4351C65.6924 14.9956 65.7144 14.146 65.7144 12.8862C65.6997 10.3081 65.4507 9.01904 64.9673 9.01904C64.6743 9.01904 64.2861 9.58301 63.8027 10.7109C63.5391 11.2236 63.312 11.7437 63.1216 12.271L63.0117 12.5786C62.7773 13.3696 62.5649 14.1533 62.3745 14.9297C62.3013 15.208 62.1694 15.8672 61.979 16.9072C61.8765 17.4199 61.7812 17.9399 61.6934 18.4673C61.6494 18.7896 61.5981 19.1045 61.5396 19.4121C61.5103 19.5293 61.4663 19.793 61.4077 20.2031C61.3784 20.3936 61.3271 20.584 61.2539 20.7744C61.166 21.1113 60.9609 21.353 60.6387 21.4995L59.3643 21.6973C58.8516 21.6533 58.4927 21.1919 58.2876 20.313C57.9507 17.647 57.3647 14.9663 56.5298 12.271L56.4419 11.9414C56.2075 11.1064 55.9951 10.4253 55.8047 9.89795C55.4678 9.22412 55.1748 8.88721 54.9258 8.88721C54.5596 8.88721 54.252 9.63428 54.0029 11.1284C53.6953 12.6519 53.5122 14.3657 53.4536 16.27L53.4316 16.7095C53.4316 17.1196 53.439 17.5225 53.4536 17.918C53.5122 19.8369 53.5708 20.9575 53.6294 21.2798C53.7466 22.5835 53.8564 23.6162 53.959 24.3779L54.0688 24.9932C54.0396 25.1543 53.8638 25.3813 53.5415 25.6743C53.2339 25.9526 52.853 26.1797 52.3989 26.3555C52.1499 26.458 51.9155 26.5093 51.6958 26.5093Z" fill="#1E1E1E"/>
<path d="M76.6348 24.4219C75.2432 24.4219 73.9761 24.0117 72.8335 23.1914C72.1304 22.6055 71.5298 21.9023 71.0317 21.082L70.834 20.7085C70.2627 19.7124 69.8452 18.4526 69.5815 16.9292C69.5229 16.3872 69.479 15.8525 69.4497 15.3252C69.4497 14.168 69.5449 13.1133 69.7354 12.1611C69.9551 10.9307 70.3945 9.59766 71.0537 8.16211C71.6104 7.04883 72.1011 6.29443 72.5259 5.89893C72.6284 5.82568 72.7676 5.78906 72.9434 5.78906C73.4854 5.78906 74.0859 6.03809 74.7451 6.53613C75.4189 7.01953 75.7559 7.50293 75.7559 7.98633C75.7559 8.23535 75.646 8.48438 75.4263 8.7334C75.1479 9.36328 74.9136 10.0664 74.7231 10.8428C74.5034 11.751 74.3716 12.6445 74.3276 13.5234L74.3057 14.2705C74.3057 15.0615 74.3716 15.75 74.5034 16.3359C74.606 16.9805 74.6938 17.3394 74.7671 17.4126C75.0161 18.145 75.2578 18.7236 75.4922 19.1484C76.0049 19.9688 76.5762 20.3789 77.2061 20.3789C77.7627 20.3789 78.4585 19.998 79.2935 19.2363C79.7036 18.7969 80.0259 18.3501 80.2603 17.896C80.5532 17.3979 80.7729 16.8633 80.9194 16.292C81.1538 15.5303 81.271 14.7612 81.271 13.9849C81.271 13.311 81.2197 12.6152 81.1172 11.8975L81.0952 11.8315C80.9927 11.2163 80.8315 10.5718 80.6118 9.89795C80.3628 9.10693 80.1504 8.52832 79.9746 8.16211L79.7549 7.70068C79.6084 7.43701 79.5352 7.21729 79.5352 7.0415C79.5352 6.57275 79.7329 6.18457 80.1284 5.87695C80.5239 5.55469 81.0073 5.39355 81.5786 5.39355C82.604 5.39355 83.1753 5.9209 83.2925 6.97559L83.666 8.03027L83.9956 9.15088C84.3472 10.6157 84.5522 11.7363 84.6108 12.5127L84.6768 14.0508C84.6768 15.0029 84.5303 16.0137 84.2373 17.083L83.8857 18.1597L83.7759 18.4233C83.4097 19.3608 82.9043 20.2544 82.2598 21.104C81.2197 22.481 80.0698 23.4331 78.8101 23.9604C78.1069 24.2681 77.3818 24.4219 76.6348 24.4219Z" fill="#1E1E1E"/>
<path d="M87.2476 25.103C86.8813 25.103 86.4785 24.9712 86.0391 24.7075C85.6143 24.4292 85.3652 23.9092 85.292 23.1475C85.1895 22.1807 85.1382 20.7451 85.1382 18.8408L85.1602 18.3574C85.1748 17.2441 85.2188 16.0942 85.292 14.9077C85.292 14.644 85.3066 14.373 85.3359 14.0947C85.3799 12.9082 85.5337 11.6924 85.7974 10.4473L86.061 9.4585C86.2515 8.78467 86.5225 8.20605 86.874 7.72266C87.416 6.91699 88.1558 6.51416 89.0933 6.51416C89.3569 6.51416 89.6279 6.55078 89.9062 6.62402C90.4629 6.8291 90.9902 7.19531 91.4883 7.72266C91.7959 8.05957 92.1401 8.52832 92.521 9.12891C92.9604 9.78809 93.3706 10.5132 93.7515 11.3042L94.0151 11.8535C94.1323 12.0879 94.2422 12.3296 94.3447 12.5786C94.6523 13.2671 94.8428 13.7285 94.916 13.9629C95.209 14.6221 95.4067 15.1055 95.5093 15.4131L96.564 17.9619L96.6519 16.6875C96.6958 15.9844 96.7178 15.3618 96.7178 14.8198L96.7397 14.0288L96.7178 13.6113C96.7178 13.04 96.7104 12.6592 96.6958 12.4688C96.6958 11.6338 96.7178 10.9307 96.7617 10.3594V9.41455L96.7397 9.10693C96.7397 8.90186 96.7617 8.69678 96.8057 8.4917C97.0693 7.67139 97.5015 7.26123 98.1021 7.26123C98.5854 7.26123 98.9883 7.61279 99.3105 8.31592C99.4131 8.59424 99.4863 8.90186 99.5303 9.23877C99.5742 9.57568 99.6548 10.0225 99.772 10.5791C99.9771 11.5459 100.109 12.5054 100.167 13.4575L100.299 14.688C100.446 15.728 100.526 16.7388 100.541 17.7202C100.541 18.0132 100.504 18.5918 100.431 19.4561L100.409 19.522C100.307 20.811 99.9771 21.8438 99.4204 22.6201C98.8345 23.3818 98.0801 23.7627 97.1572 23.7627C96.249 23.7627 95.458 23.3892 94.7842 22.6421C94.3301 22.2173 93.8687 21.5508 93.3999 20.6426C92.8872 19.6172 92.3086 18.2695 91.6641 16.5996C91.6348 16.4971 91.5908 16.3872 91.5322 16.27C91.4883 16.1382 91.1733 15.3105 90.5874 13.7871C90.5874 13.7578 90.5801 13.7358 90.5654 13.7212C90.3164 12.9888 90.0234 12.3003 89.6865 11.6558L89.6206 11.5239L89.269 14.3364C89.269 14.4243 89.2617 14.5049 89.2471 14.5781C89.1885 15.3252 89.1445 16.0503 89.1152 16.7534C89.1152 16.9585 89.0859 17.6763 89.0273 18.9067C88.9834 20.3862 88.9468 21.3823 88.9175 21.895L88.8296 23.2573C88.8149 23.4771 88.793 23.6895 88.7637 23.8945C88.5732 24.7002 88.0679 25.103 87.2476 25.103Z" fill="#1E1E1E"/>
<path d="M102.562 5.72314C102.533 5.72314 102.313 5.71582 101.903 5.70117C101.493 5.68652 101.193 5.26172 101.002 4.42676V3.13037C101.002 2.8667 101.01 2.67627 101.024 2.55908V2.40527C101.171 1.14551 101.735 0.515625 102.716 0.515625C103.097 0.515625 103.434 0.632812 103.727 0.867188C104.123 1.2041 104.32 1.75342 104.32 2.51514C104.364 2.82275 104.386 3.1084 104.386 3.37207C104.43 3.69434 104.452 4.0459 104.452 4.42676C104.452 4.58789 104.43 4.74902 104.386 4.91016C103.903 5.45215 103.295 5.72314 102.562 5.72314ZM104.079 25.5425C103.375 25.5425 102.797 25.0737 102.343 24.1362C101.977 22.9204 101.706 20.9941 101.53 18.3574L101.464 17.6543C101.405 16.6875 101.369 16.1895 101.354 16.1602C101.251 14.4316 101.208 13.2012 101.222 12.4688C101.222 11.5312 101.237 10.8062 101.266 10.2935C101.354 9.47314 101.596 8.87988 101.991 8.51367C102.343 8.20605 102.731 8.05225 103.156 8.05225C103.698 8.05225 104.145 8.27197 104.496 8.71143C104.774 9.04834 104.914 9.48779 104.914 10.0298L104.892 10.3374L104.914 11.502L104.979 12.8643C104.994 13.1719 105.016 13.4722 105.045 13.7651L105.133 15.2153C105.192 15.772 105.236 16.3286 105.265 16.8853L105.661 20.9502C105.807 22.1514 105.88 23.0742 105.88 23.7188C105.646 24.9346 105.045 25.5425 104.079 25.5425Z" fill="#1E1E1E"/>
<path d="M112.384 23.3232C111.505 23.3232 110.722 23.0669 110.033 22.5542C109.184 21.9243 108.524 20.8623 108.056 19.3682C107.821 18.709 107.646 17.9692 107.528 17.1489C107.514 17.0024 107.492 16.8633 107.462 16.7314L107.353 15.8745C107.353 15.6987 107.338 15.5229 107.309 15.3472C107.235 14.7173 107.199 13.6992 107.199 12.293L107.243 11.5459C107.257 11.0479 107.294 10.5425 107.353 10.0298C107.411 9.51709 107.455 9.2168 107.484 9.12891C107.279 9.12891 106.869 9.22412 106.254 9.41455L105.792 9.52441L105.507 9.54639C105.36 9.4585 105.199 9.37793 105.023 9.30469C104.35 9.07031 104.013 8.78467 104.013 8.44775C104.013 8.22803 104.262 7.94238 104.76 7.59082L104.804 7.56885C105.434 7.18799 106.217 6.86572 107.155 6.60205C107.624 6.48486 107.909 6.42627 108.012 6.42627L108.034 6.29443L108.166 5.83301C108.268 5.23242 108.437 4.69043 108.671 4.20703C109.066 3.43066 109.535 3.04248 110.077 3.04248C110.795 3.05713 111.425 3.55518 111.967 4.53662L111.857 5.06396L111.703 5.78906L111.637 6.05273C111.637 6.08203 111.63 6.104 111.615 6.11865L111.835 6.14062C112.304 6.14062 112.692 6.14795 113 6.1626C113.307 6.17725 113.607 6.20654 113.9 6.25049C114.516 6.27979 115.028 6.36035 115.438 6.49219C115.717 6.69727 115.856 6.95361 115.856 7.26123C115.856 7.31982 115.834 7.47363 115.79 7.72266C115.746 7.95703 115.563 8.24268 115.241 8.57959C114.918 8.9165 114.552 9.11426 114.142 9.17285L113.483 9.10693C112.765 9.01904 112.245 8.96777 111.923 8.95312L111.22 8.93115L111.198 9.04102C111.168 9.39258 111.132 9.73682 111.088 10.0737C111.088 10.2788 111.073 10.4546 111.044 10.6011C110.971 11.5532 110.934 12.1978 110.934 12.5347L110.89 13.062C110.89 14.3511 110.912 15.208 110.956 15.6328C110.956 15.8086 110.985 16.1895 111.044 16.7754C111.103 17.0977 111.154 17.4126 111.198 17.7202C111.256 18.0278 111.322 18.3208 111.396 18.5991C111.498 19.0532 111.659 19.4854 111.879 19.8955C112.099 20.291 112.362 20.4888 112.67 20.4888C112.934 20.4888 113.219 20.2251 113.527 19.6978C113.673 19.4634 113.761 19.3022 113.791 19.2144C114.083 18.4819 114.391 18.1157 114.713 18.1157C115.08 18.1157 115.307 18.7749 115.395 20.0933C115.38 20.1226 115.373 20.1592 115.373 20.2031V20.335C115.373 20.8184 115.189 21.3823 114.823 22.0269C114.53 22.4663 114.186 22.7959 113.791 23.0156C113.395 23.2207 112.926 23.3232 112.384 23.3232ZM111.615 8.93115C111.498 8.93115 111.388 8.92383 111.286 8.90918H111.22V8.93115H111.615Z" fill="#1E1E1E"/>
<path d="M125.854 35.7598C124.916 35.7598 123.949 35.5254 122.953 35.0566C122.499 34.8223 122.082 34.5293 121.701 34.1777C121.671 34.1338 121.635 34.0972 121.591 34.0679C121.4 33.8628 121.225 33.6431 121.063 33.4087C120.463 32.5151 120.163 31.6729 120.163 30.8818C120.163 30.457 120.236 30.0396 120.382 29.6294C120.807 28.9849 121.334 28.6626 121.964 28.6626C122.008 28.6626 122.213 28.6772 122.58 28.7065C122.946 28.7358 123.334 29.1313 123.744 29.8931C123.773 30.0103 123.795 30.1348 123.81 30.2666V30.5742C124.206 31.7607 124.821 32.354 125.656 32.354C125.7 32.354 125.956 32.332 126.425 32.2881C126.908 32.2588 127.23 31.5117 127.392 30.0469L127.414 29.4976C127.414 28.5601 127.377 27.769 127.304 27.1245C127.304 27.0073 127.274 26.5972 127.216 25.894L126.908 23.1914L126.842 22.752C126.491 23.3086 126.037 23.7773 125.48 24.1582C124.733 24.6855 123.927 24.9492 123.063 24.9492C121.906 24.9492 120.873 24.6416 119.965 24.0264C119.247 23.5137 118.646 22.8691 118.163 22.0928L118.097 22.0049C117.497 20.9795 117.013 19.7051 116.647 18.1816C116.413 17.127 116.295 16.0576 116.295 14.9736L116.317 13.3916C116.376 12.4102 116.493 11.458 116.669 10.5352C117.24 8.35254 118.17 7.26123 119.459 7.26123C119.87 7.26123 120.243 7.42236 120.58 7.74463C120.976 8.11084 121.173 8.63086 121.173 9.30469C121.173 9.6123 121.129 9.94922 121.042 10.3154C120.924 10.667 120.8 11.3262 120.668 12.293C120.595 13.2305 120.558 13.9556 120.558 14.4683C120.558 14.8784 120.595 15.4717 120.668 16.248C120.697 16.6582 120.756 17.0684 120.844 17.4785C120.961 18.0791 121.181 18.7749 121.503 19.5659L121.569 19.6758C122.067 20.8037 122.624 21.3677 123.239 21.3677C123.693 21.3677 124.286 20.9282 125.019 20.0493L125.414 19.5659C125.619 19.3315 125.81 19.0972 125.985 18.8628L126.293 18.4453V18.4233C126.234 17.7495 126.103 16.6655 125.897 15.1714C125.795 14.4243 125.692 13.4355 125.59 12.2051L125.48 10.8867L125.436 10.5571L125.37 9.06299C125.37 8.96045 125.363 8.86523 125.348 8.77734C125.377 8.13281 125.59 7.64941 125.985 7.32715C126.381 6.99023 126.872 6.82178 127.458 6.82178C127.897 6.82178 128.3 6.96826 128.666 7.26123C129.047 7.53955 129.245 7.979 129.259 8.57959C129.289 8.75537 129.311 8.92383 129.325 9.08496C129.34 9.23145 129.354 9.37061 129.369 9.50244L129.457 10.2275L129.479 10.623L129.765 13.2817C129.838 13.7798 129.896 14.2925 129.94 14.8198C129.999 15.3325 130.065 15.8525 130.138 16.3799L130.16 16.6655C130.453 18.936 130.644 20.4521 130.731 21.2139L131.215 25.5864L131.325 26.8608C131.383 27.4907 131.413 28.2524 131.413 29.146C131.413 30.3765 131.281 31.3872 131.017 32.1782C130.812 32.8521 130.541 33.4233 130.204 33.8921C129.691 34.5806 128.908 35.1006 127.853 35.4521C127.501 35.584 127.033 35.6792 126.447 35.7378L125.854 35.7598Z" fill="#1E1E1E"/>
</g>
<defs>
<clipPath id="clip0">
<rect width="130.825" height="35.2441" fill="white" transform="translate(0.587402 0.515625)"/>
</clipPath>
</defs>
</svg>
