<svg width="26" height="26" viewBox="0 0 26 26" fill="none" xmlns="http://www.w3.org/2000/svg">
<path fill-rule="evenodd" clip-rule="evenodd" d="M16.7511 0.499023H23.0011C24.3818 0.499023 25.5011 1.61831 25.5011 2.99902V9.24902C25.5011 10.6297 24.3818 11.749 23.0011 11.749H16.7511C15.3703 11.749 14.2511 10.6297 14.2511 9.24902V2.99902C14.2511 1.61831 15.3703 0.499023 16.7511 0.499023ZM2.99805 0.499287H9.24805C10.6288 0.499287 11.748 1.61858 11.748 2.99929V9.24929C11.748 10.63 10.6288 11.7493 9.24805 11.7493H2.99805C1.61733 11.7493 0.498047 10.63 0.498047 9.24929V2.99929C0.498047 1.61858 1.61733 0.499287 2.99805 0.499287ZM20.5028 14.2498H18.0028V17.9998H14.2528V20.4998H18.0028V24.2498H20.5028V20.4998H24.2528V17.9998H20.5028V14.2498ZM3.00211 14.2501H9.25211C10.6328 14.2501 11.7521 15.3694 11.7521 16.7501V23.0001C11.7521 24.3808 10.6328 25.5001 9.25211 25.5001H3.00211C1.6214 25.5001 0.502111 24.3808 0.502111 23.0001V16.7501C0.502111 15.3694 1.6214 14.2501 3.00211 14.2501ZM3.00121 22.9988V16.7488H9.25121V22.9988H3.00121ZM3.00106 9.24797V2.99797H9.25105V9.24797H3.00106ZM16.75 9.24955V2.99955H23V9.24955H16.75Z" fill="#7D2BE5"/>
</svg>
