<svg width="74" height="75" viewBox="0 0 74 75" fill="none" xmlns="http://www.w3.org/2000/svg">
<g clip-path="url(#clip0)">
<rect y="0.515625" width="74" height="74" rx="20.5556" fill="url(#paint0_linear)"/>
<g filter="url(#filter0_dddddd)">
<path fill-rule="evenodd" clip-rule="evenodd" d="M21.6351 27.538C21.6045 27.538 21.3749 27.5304 20.9465 27.5151C20.5181 27.4998 20.2044 27.0561 20.0055 26.1839V24.8298C20.0055 24.5544 20.0132 24.3555 20.0285 24.2331V24.0724C20.1815 22.7566 20.7706 22.0986 21.7957 22.0986C22.1935 22.0986 22.5455 22.221 22.8515 22.4659C23.2646 22.8178 23.4711 23.3915 23.4711 24.1872C23.5171 24.5085 23.54 24.8069 23.54 25.0823C23.5859 25.4189 23.6089 25.7861 23.6089 26.1839C23.6089 26.3522 23.5859 26.5205 23.54 26.6889C23.0351 27.255 22.4001 27.538 21.6351 27.538ZM23.2187 48.24C22.4842 48.24 21.8799 47.7503 21.4055 46.7711C21.023 45.5011 20.74 43.4891 20.5564 40.7349L20.4875 40.0005C20.4263 38.9907 20.388 38.4704 20.3727 38.4398C20.2656 36.6343 20.2197 35.3491 20.235 34.584C20.235 33.6048 20.2503 32.8474 20.2809 32.3119C20.3727 31.455 20.6252 30.8354 21.0383 30.4528C21.4055 30.1315 21.811 29.9709 22.2547 29.9709C22.8209 29.9709 23.2875 30.2004 23.6548 30.6594C23.9455 31.0113 24.0908 31.4703 24.0908 32.0365L24.0679 32.3578L24.0908 33.5742L24.1597 34.9972C24.175 35.3185 24.1979 35.6321 24.2285 35.9382L24.3203 37.4529C24.3815 38.0344 24.4274 38.6158 24.458 39.1972L24.8712 43.4432C25.0242 44.6978 25.1007 45.6618 25.1007 46.335C24.8559 47.605 24.2285 48.24 23.2187 48.24ZM13.5333 48.699C11.789 48.699 10.2513 48.2323 8.92013 47.299C8.2163 46.8093 7.65017 46.2662 7.22175 45.6694C6.74743 44.9503 6.49496 44.2388 6.46436 43.535C6.66327 42.6169 7.06874 42.1579 7.68077 42.1579C7.71137 42.1579 7.89498 42.1732 8.2316 42.2038C8.58352 42.2191 9.10374 42.5098 9.79228 43.076C10.083 43.4738 10.389 43.8104 10.7103 44.0858L10.848 44.2006C11.0469 44.3689 11.2535 44.5066 11.4677 44.6137C12.1562 45.0115 12.8295 45.2104 13.4874 45.2104C14.1147 45.2104 14.6732 44.9886 15.1628 44.5448L15.2776 44.1088C15.2929 44.0323 15.3005 43.9481 15.3005 43.8563C15.3005 43.5656 15.1475 43.206 14.8415 42.7776C14.612 42.4563 14.2218 42.0814 13.671 41.653L13.4415 41.4464L12.7989 40.9645L11.9267 40.3448L11.5825 40.1382C11.3683 40.0005 11.1387 39.8628 10.8939 39.7251C10.7103 39.6333 10.3508 39.4038 9.81523 39.0366L9.70047 38.9448C9.36386 38.7152 9.03489 38.4628 8.71357 38.1874C7.99444 37.56 7.42066 36.8333 6.99224 36.007C6.57912 35.1808 6.37256 34.2857 6.37256 33.3217C6.37256 32.3272 6.64032 31.3479 7.17585 30.384C7.69607 29.4812 8.35401 28.7774 9.14965 28.2725C9.96059 27.7523 10.9169 27.4921 12.0185 27.4921C13.1049 27.4921 14.0688 27.7905 14.9104 28.3872C15.4765 28.8463 15.8973 29.3971 16.1727 30.0397C16.4022 30.5293 16.517 31.019 16.517 31.5086C16.517 32.1818 16.2951 32.7862 15.8514 33.3217C15.3771 33.7349 14.9716 33.9414 14.635 33.9414C14.6197 33.9414 14.5202 33.9338 14.3366 33.9185C14.153 33.9032 13.824 33.6048 13.3497 33.0234C13.2885 32.9469 13.2579 32.8627 13.2579 32.7709V32.4496V32.1283C13.2579 31.9906 13.2502 31.9141 13.2349 31.8988C13.189 31.807 13.1584 31.7534 13.1431 31.7381C13.1278 31.7075 13.1125 31.6846 13.0972 31.6693L13.0513 31.6234C12.7453 31.302 12.4623 31.1414 12.2021 31.1414C11.6666 31.1414 11.2458 31.4397 10.9398 32.0365C10.7562 32.4343 10.6644 32.8015 10.6644 33.1381C10.6644 33.337 10.7103 33.5436 10.8021 33.7578C10.9551 34.2015 11.3759 34.6835 12.0644 35.2037C12.1715 35.3108 12.4776 35.5174 12.9825 35.8234C13.1049 35.8846 13.2196 35.9535 13.3268 36.03L14.4055 36.6726C15.3388 37.2846 15.9355 37.6977 16.1956 37.912C16.976 38.524 17.611 39.1284 18.1006 39.7251C19.0645 40.9492 19.5465 42.265 19.5465 43.6727C19.5465 44.0552 19.5006 44.4377 19.4088 44.8202C18.9957 46.5339 17.8864 47.7044 16.0809 48.3318C15.2699 48.5766 14.4208 48.699 13.5333 48.699ZM27.3499 45.9908C27.6559 46.0826 27.9696 46.1285 28.2909 46.1285C28.5969 46.1285 28.9106 46.0826 29.2319 45.9908L29.645 45.9219L30.0122 45.899H30.2188C30.4177 45.8683 30.609 45.853 30.7926 45.853C30.9915 45.853 31.2286 45.8377 31.504 45.8071L34.0975 45.6465L34.7861 45.6235C35.2757 45.6082 35.7577 45.5776 36.232 45.5317C37.2112 45.5317 37.8462 45.3022 38.1369 44.8432C38.4429 44.3842 38.5959 43.9787 38.5959 43.6268C38.5959 42.112 37.303 41.3546 34.7172 41.3546C34.3041 41.3546 33.6002 41.3929 32.6057 41.4694C32.5139 41.4847 32.4144 41.4923 32.3073 41.4923L33.1336 40.3677L34.0516 39.0595C34.3576 38.6158 34.6636 38.1491 34.9697 37.6595C35.6276 36.6343 36.1861 35.6704 36.6451 34.7677C37.1041 33.9567 37.4025 33.1381 37.5402 32.3119C37.6014 31.9753 37.632 31.631 37.632 31.2791C37.632 30.5446 37.456 29.8791 37.1041 29.2823C36.5533 28.3949 35.7424 27.8441 34.6713 27.6299C34.0746 27.5227 33.386 27.4692 32.6057 27.4692C31.9325 27.4692 31.3587 27.4921 30.8844 27.538C30.2417 27.6146 29.4461 27.7599 28.4974 27.9741C26.539 28.479 25.5597 29.0375 25.5597 29.6496C25.5597 29.772 25.6056 29.902 25.6974 30.0397C26.0187 30.5446 26.5466 30.9578 27.281 31.2791C28.0308 31.6004 28.6505 31.7611 29.1401 31.7611H29.3466L30.0122 31.6922L30.2876 31.6693C30.6243 31.6387 30.9609 31.6234 31.2975 31.6234L32.6516 31.6922L32.468 32.2201C32.3303 32.4955 32.1849 32.8245 32.0319 33.207L30.9762 35.2267C30.8232 35.4715 30.6855 35.7316 30.563 36.007C30.2876 36.466 29.821 37.2311 29.163 38.3021L28.4515 39.4038C28.3597 39.5874 28.1073 39.9623 27.6942 40.5284L27.1204 41.4235L26.7302 41.9743L26.6155 42.1579C26.187 42.7699 25.9652 43.359 25.9499 43.9252C25.9958 44.9044 26.4624 45.5929 27.3499 45.9908ZM41.7862 46.1285C41.4648 46.1285 41.1512 46.0826 40.8452 45.9908C39.9577 45.5929 39.491 44.9044 39.4451 43.9252C39.4604 43.359 39.6823 42.7699 40.1107 42.1579L40.2255 41.9743L40.6156 41.4235L41.1894 40.5284C41.6025 39.9623 41.855 39.5874 41.9468 39.4038L42.6583 38.3021C43.3162 37.2311 43.7829 36.466 44.0583 36.007C44.1807 35.7316 44.3184 35.4715 44.4714 35.2267L45.5272 33.207C45.6802 32.8245 45.8256 32.4955 45.9633 32.2201L46.1469 31.6922L44.7927 31.6234C44.4561 31.6234 44.1195 31.6387 43.7829 31.6693L43.5075 31.6922L42.8419 31.7611H42.6353C42.1457 31.7611 41.526 31.6004 40.7763 31.2791C40.0419 30.9578 39.514 30.5446 39.1927 30.0397C39.1009 29.902 39.055 29.772 39.055 29.6496C39.055 29.0375 40.0342 28.479 41.9927 27.9741C42.9414 27.7599 43.737 27.6146 44.3796 27.538C44.854 27.4921 45.4277 27.4692 46.101 27.4692C46.8813 27.4692 47.5698 27.5227 48.1666 27.6299C49.2376 27.8441 50.0486 28.3949 50.5994 29.2823C50.9513 29.8791 51.1273 30.5446 51.1273 31.2791C51.1273 31.631 51.0967 31.9753 51.0355 32.3119C50.8978 33.1381 50.5994 33.9567 50.1404 34.7677C49.6813 35.6704 49.1229 36.6343 48.4649 37.6595C48.1589 38.1491 47.8529 38.6158 47.5469 39.0595L46.6288 40.3677L45.8026 41.4923C45.9097 41.4923 46.0092 41.4847 46.101 41.4694C47.0955 41.3929 47.7993 41.3546 48.2125 41.3546C50.7983 41.3546 52.0912 42.112 52.0912 43.6268C52.0912 43.9787 51.9382 44.3842 51.6322 44.8432C51.3415 45.3022 50.7065 45.5317 49.7272 45.5317C49.2529 45.5776 48.7709 45.6082 48.2813 45.6235L47.5928 45.6465L44.9993 45.8071C44.7239 45.8377 44.4867 45.853 44.2878 45.853C44.1042 45.853 43.913 45.8683 43.714 45.899H43.5075L43.1403 45.9219L42.7271 45.9908C42.4058 46.0826 42.0922 46.1285 41.7862 46.1285ZM56.4978 46.1744C57.3853 46.5569 58.2727 46.7481 59.1602 46.7481C59.6498 46.7481 60.1394 46.6946 60.629 46.5875C62.4498 46.052 64.0717 45.1416 65.4947 43.8563C65.8007 43.5809 66.0608 43.2749 66.275 42.9383C66.5045 42.6016 66.6652 42.2421 66.757 41.8596C66.6805 41.1557 66.451 40.7426 66.0684 40.6202C65.7012 40.4825 65.357 40.4136 65.0356 40.4136C64.8061 40.4136 64.569 40.4366 64.3242 40.4825L64.1635 40.5743C63.6739 40.8344 63.1996 41.171 62.7405 41.5841C62.664 41.6606 62.3886 41.8519 61.9143 42.1579C61.6236 42.3415 61.3176 42.5175 60.9963 42.6858C60.4454 43.0071 59.8793 43.1678 59.2979 43.1678C58.7011 43.1678 58.1427 42.8771 57.6224 42.2956C57.4235 42.0661 57.2629 41.8213 57.1405 41.5612C57.1252 41.5 57.1099 41.4464 57.0946 41.4005C57.0793 41.3546 57.064 41.324 57.0487 41.3087C57.7372 41.2781 58.4946 41.1251 59.3208 40.8497C60.958 40.2836 62.6105 39.2737 64.2783 37.8202C64.7832 37.3458 65.1045 37.0016 65.2422 36.7874C65.9154 35.9764 66.4127 35.1961 66.734 34.4463C67.1931 33.4671 67.4226 32.4496 67.4226 31.3938C67.4226 30.7665 67.3461 30.1927 67.1931 29.6725C66.7187 27.9741 65.64 26.8113 63.9569 26.1839C63.5438 26.0615 63.1307 25.9927 62.7176 25.9774H61.4323C60.5755 26.0845 59.7033 26.3675 58.8159 26.8266C57.9437 27.2856 57.1099 27.9053 56.3142 28.6856C55.5339 29.4506 54.8759 30.2922 54.3404 31.2102C53.8202 32.1283 53.3918 33.207 53.0552 34.4463C52.7185 35.7775 52.5502 37.1393 52.5502 38.5316C52.5502 40.8421 53.0628 42.7393 54.088 44.2235C54.7306 45.0957 55.5339 45.7459 56.4978 46.1744ZM56.6355 38.6005C56.6202 38.6158 56.5973 38.6234 56.5667 38.6234C56.5667 36.8945 56.8421 35.3797 57.3929 34.0791C58.0202 32.5796 59.0071 31.3709 60.3536 30.4528C61.1034 29.9785 61.7536 29.7414 62.3045 29.7414H61.6618C61.6618 29.7261 61.7919 29.7031 62.052 29.6725C62.2968 29.6725 62.4881 29.6955 62.6258 29.7414H62.6487C62.8323 29.7873 62.993 29.9173 63.1307 30.1315C63.4061 30.6365 63.5438 31.1184 63.5438 31.5774C63.5285 32.3425 63.2761 33.1687 62.7864 34.0562C62.4651 34.5611 62.029 35.0966 61.4782 35.6627C60.1471 36.9174 58.8618 37.8049 57.6224 38.3251C57.1175 38.5087 56.7885 38.6005 56.6355 38.6005Z" fill="url(#paint1_linear)"/>
</g>
<g filter="url(#filter1_f)">
<rect x="13.7095" y="5.44922" width="46.5808" height="3.49356" rx="1.74678" fill="#F2F2F2"/>
</g>
<g filter="url(#filter2_f)">
<rect x="69.1699" y="62.9473" width="46.5808" height="1.74678" rx="0.873391" transform="rotate(-90 69.1699 62.9473)" fill="#F2F2F2"/>
</g>
<g filter="url(#filter3_f)">
<rect x="3.0835" y="62.9473" width="46.5808" height="0.873391" rx="0.436695" transform="rotate(-90 3.0835 62.9473)" fill="#F2F2F2"/>
</g>
</g>
<defs>
<filter id="filter0_dddddd" x="-39.8774" y="22.0986" width="153.55" height="125.473" filterUnits="userSpaceOnUse" color-interpolation-filters="sRGB">
<feFlood flood-opacity="0" result="BackgroundImageFix"/>
<feColorMatrix in="SourceAlpha" type="matrix" values="0 0 0 0 0 0 0 0 0 0 0 0 0 0 0 0 0 0 127 0"/>
<feOffset dy="1.45619"/>
<feGaussianBlur stdDeviation="0.639928"/>
<feColorMatrix type="matrix" values="0 0 0 0 0 0 0 0 0 0.00392157 0 0 0 0 0 0 0 0 0.0191468 0"/>
<feBlend mode="normal" in2="BackgroundImageFix" result="effect1_dropShadow"/>
<feColorMatrix in="SourceAlpha" type="matrix" values="0 0 0 0 0 0 0 0 0 0 0 0 0 0 0 0 0 0 127 0"/>
<feOffset dy="3.49943"/>
<feGaussianBlur stdDeviation="1.53784"/>
<feColorMatrix type="matrix" values="0 0 0 0 0 0 0 0 0 0.00392157 0 0 0 0 0 0 0 0 0.0268461 0"/>
<feBlend mode="normal" in2="effect1_dropShadow" result="effect2_dropShadow"/>
<feColorMatrix in="SourceAlpha" type="matrix" values="0 0 0 0 0 0 0 0 0 0 0 0 0 0 0 0 0 0 127 0"/>
<feOffset dy="6.58912"/>
<feGaussianBlur stdDeviation="2.89561"/>
<feColorMatrix type="matrix" values="0 0 0 0 0 0 0 0 0 0.00392157 0 0 0 0 0 0 0 0 0.0329042 0"/>
<feBlend mode="normal" in2="effect2_dropShadow" result="effect3_dropShadow"/>
<feColorMatrix in="SourceAlpha" type="matrix" values="0 0 0 0 0 0 0 0 0 0 0 0 0 0 0 0 0 0 127 0"/>
<feOffset dy="11.7539"/>
<feGaussianBlur stdDeviation="5.16527"/>
<feColorMatrix type="matrix" values="0 0 0 0 0 0 0 0 0 0.00392157 0 0 0 0 0 0 0 0 0.0394595 0"/>
<feBlend mode="normal" in2="effect3_dropShadow" result="effect4_dropShadow"/>
<feColorMatrix in="SourceAlpha" type="matrix" values="0 0 0 0 0 0 0 0 0 0 0 0 0 0 0 0 0 0 127 0"/>
<feOffset dy="21.9843"/>
<feGaussianBlur stdDeviation="9.66107"/>
<feColorMatrix type="matrix" values="0 0 0 0 0 0 0 0 0 0.00392157 0 0 0 0 0 0 0 0 0.0488012 0"/>
<feBlend mode="normal" in2="effect4_dropShadow" result="effect5_dropShadow"/>
<feColorMatrix in="SourceAlpha" type="matrix" values="0 0 0 0 0 0 0 0 0 0 0 0 0 0 0 0 0 0 127 0"/>
<feOffset dy="52.6222"/>
<feGaussianBlur stdDeviation="23.125"/>
<feColorMatrix type="matrix" values="0 0 0 0 0 0 0 0 0 0.00392157 0 0 0 0 0 0 0 0 0.07 0"/>
<feBlend mode="normal" in2="effect5_dropShadow" result="effect6_dropShadow"/>
<feBlend mode="normal" in="SourceGraphic" in2="effect6_dropShadow" result="shape"/>
</filter>
<filter id="filter1_f" x="5.99452" y="-2.26573" width="62.0107" height="18.9235" filterUnits="userSpaceOnUse" color-interpolation-filters="sRGB">
<feFlood flood-opacity="0" result="BackgroundImageFix"/>
<feBlend mode="normal" in="SourceGraphic" in2="BackgroundImageFix" result="shape"/>
<feGaussianBlur stdDeviation="3.85748" result="effect1_foregroundBlur"/>
</filter>
<filter id="filter2_f" x="63.784" y="10.9803" width="12.5186" height="57.3526" filterUnits="userSpaceOnUse" color-interpolation-filters="sRGB">
<feFlood flood-opacity="0" result="BackgroundImageFix"/>
<feBlend mode="normal" in="SourceGraphic" in2="BackgroundImageFix" result="shape"/>
<feGaussianBlur stdDeviation="2.69295" result="effect1_foregroundBlur"/>
</filter>
<filter id="filter3_f" x="-2.30241" y="10.9803" width="11.6452" height="57.3526" filterUnits="userSpaceOnUse" color-interpolation-filters="sRGB">
<feFlood flood-opacity="0" result="BackgroundImageFix"/>
<feBlend mode="normal" in="SourceGraphic" in2="BackgroundImageFix" result="shape"/>
<feGaussianBlur stdDeviation="2.69295" result="effect1_foregroundBlur"/>
</filter>
<linearGradient id="paint0_linear" x1="37" y1="0.515625" x2="37" y2="74.5156" gradientUnits="userSpaceOnUse">
<stop stop-color="#434343"/>
<stop offset="1" stop-color="#1B1A1B"/>
</linearGradient>
<linearGradient id="paint1_linear" x1="36.8976" y1="22.0986" x2="36.8976" y2="48.699" gradientUnits="userSpaceOnUse">
<stop stop-color="white"/>
<stop offset="0.421421" stop-color="#ECF1EB"/>
<stop offset="0.827347" stop-color="#A9A9A9"/>
<stop offset="1" stop-color="#C8C8C8"/>
</linearGradient>
<clipPath id="clip0">
<rect width="74" height="74" fill="white" transform="translate(0 0.515625)"/>
</clipPath>
</defs>
</svg>
