<svg width="73" height="73" viewBox="0 0 73 73" fill="none" xmlns="http://www.w3.org/2000/svg">
<path fill-rule="evenodd" clip-rule="evenodd" d="M66.9173 36.4972C66.9173 31.3797 63.479 27.3722 57.7923 27.3722H48.4452C48.4724 27.2976 48.5006 27.2208 48.5298 27.1419C48.6144 26.9132 48.8527 26.2851 49.0841 25.6751C49.2889 25.1355 49.4882 24.61 49.5709 24.3881C50.1493 22.8358 50.5713 21.585 50.9128 20.3464C51.4289 18.4742 51.709 16.7876 51.709 15.2056C51.709 10.7282 48.9467 7.94729 44.86 6.7573C43.0168 6.22057 41.4123 6.08029 39.5423 6.08057H38.0838L37.1706 7.2178C36.1391 8.50246 34.1129 10.8178 31.777 13.487C27.4676 18.4113 22.1039 24.5404 19.9853 27.6261C19.4356 27.4629 18.8534 27.3752 18.2507 27.3752H12.1673C8.80759 27.3752 6.08398 30.0988 6.08398 33.4585V60.8335C6.08398 64.1933 8.80759 66.9169 12.1673 66.9169H18.2507C20.3407 66.9169 22.1846 65.8628 23.2798 64.2573C24.2025 64.8541 25.232 65.3522 26.351 65.7525C28.913 66.6692 31.4541 66.9507 33.5636 66.9121L54.7507 66.9139C63.1309 66.9139 66.9173 54.5756 66.9173 36.4972ZM28.4003 60.0246C25.7087 59.0616 24.334 57.4913 24.334 54.7471V33.4585V33.4554C24.334 32.7248 24.4691 32.0778 24.765 31.387C25.2965 30.146 30.119 24.6441 34.6899 19.4293C37.0489 16.7379 39.3409 14.1229 40.9414 12.2097C41.7061 12.2671 42.427 12.3846 43.1593 12.5979C44.9023 13.1054 45.6257 13.8337 45.6257 15.2054C45.6257 16.1683 45.4308 17.3416 45.0482 18.7295C44.7623 19.7666 44.392 20.864 43.8704 22.2641C43.7964 22.4627 43.6117 22.9495 43.4153 23.4671L43.4152 23.4674L43.4124 23.4748C43.1738 24.1035 42.9187 24.7759 42.8242 25.0316C42.4286 26.1011 42.1681 26.8886 41.9898 27.6042C41.2321 30.646 41.9922 33.4554 45.6257 33.4554H57.7923C59.8948 33.4554 60.834 34.55 60.834 36.497C60.834 51.0689 57.8383 60.8304 54.7507 60.8304H33.459C33.3688 60.8317 33.3688 60.8317 33.3466 60.8322C32.0153 60.8561 30.1455 60.649 28.4003 60.0246ZM12.1673 60.8335V33.4585H18.2507V60.8335H12.1673Z" fill="#7D2BE5"/>
</svg>
